<?xml version="1.0" encoding="UTF-8" standalone="no"?>
<svg
   version="1.1"
   id="svg148"
   sodipodi:docname="pipes_green.svg"
   width="512"
   height="512"
   inkscape:version="1.3.2 (091e20ef0f, 2023-11-25, custom)"
   inkscape:export-filename="pipes_green.png"
   inkscape:export-xdpi="96"
   inkscape:export-ydpi="96"
   xmlns:inkscape="http://www.inkscape.org/namespaces/inkscape"
   xmlns:sodipodi="http://sodipodi.sourceforge.net/DTD/sodipodi-0.dtd"
   xmlns="http://www.w3.org/2000/svg"
   xmlns:svg="http://www.w3.org/2000/svg">
  <sodipodi:namedview
     id="namedview148"
     pagecolor="#ffffff"
     bordercolor="#111111"
     borderopacity="1"
     inkscape:showpageshadow="0"
     inkscape:pageopacity="0"
     inkscape:pagecheckerboard="1"
     inkscape:deskcolor="#d1d1d1"
     showgrid="true"
     inkscape:zoom="3.1404391"
     inkscape:cx="311.10299"
     inkscape:cy="351.22477"
     inkscape:window-width="2560"
     inkscape:window-height="1339"
     inkscape:window-x="0"
     inkscape:window-y="0"
     inkscape:window-maximized="1"
     inkscape:current-layer="g164">
    <inkscape:grid
       id="grid148"
       units="px"
       originx="0"
       originy="0"
       spacingx="8"
       spacingy="8"
       empcolor="#3f3fff"
       empopacity="0.25098039"
       color="#3f3fff"
       opacity="0.1254902"
       empspacing="16"
       dotted="false"
       gridanglex="30"
       gridanglez="30"
       visible="true" />
  </sodipodi:namedview>
  <defs
     id="defs1" />
  <g
     id="g169"
     transform="matrix(1.0888989,0,0,1.088898,-113.13679,112.18371)"
     style="stroke-width:0.918358">
    <path
       stroke="none"
       fill="#b2f04f"
       d="m 352.67662,57.700435 v -6.779886 h 90.19951 v 6.779886 h -90.19951"
       id="path86"
       style="stroke-width:0.918359"
       sodipodi:nodetypes="ccccc" />
    <path
       style="fill:#a1e03d;fill-opacity:1;stroke-width:0.918358"
       d="m 352.62382,96.379491 v -7.334622 l 0.0528,-2.444873 h 90.19951 v 9.779495 h -90.25229"
       id="path172" />
    <path
       style="fill:#a1e03d;fill-opacity:1;stroke-width:0.918358"
       d="m 352.67662,56.05 h 90.19951 v 4 h -90.19951 v -4"
       id="path87" />
    <path
       style="fill:#80be1f;fill-opacity:1;stroke-width:0.918358"
       d="m 440.49998,58.916902 v -4.342067 -4.342066 -4.396342 h 13.08048 l -0.0543,54.927143 h -13.0262 V 96.4215 87.737367 58.916902"
       id="path171" />
    <path
       style="fill:#80be1f;fill-opacity:1;stroke-width:0.918358"
       d="m 355.05002,50.528805 v 4.286343 4.286343 28.450603 l -0.0536,2.143172 v 6.429515 4.286339 H 342.13741 V 46.188882 h 12.91261 v 4.339923"
       id="path85" />
    <path
       stroke="none"
       fill="#527914"
       d="m 357.9,45.2 q 1.15,1.15 1.15,2.8 v 0.05 H 436.5 V 48 q 0,-1.65 1.2,-2.8 1.15,-1.2 2.8,-1.2 h 12.05 q 1.65,0 2.85,1.2 1.15,1.15 1.15,2.8 l -0.05,50.6 q 0,1.65 -1.15,2.85 -1.2,1.15 -2.85,1.15 h -12 q -1.65,0 -2.8,-1.15 -1.2,-1.2 -1.2,-2.85 H 359 q 0,1.65 -1.15,2.85 -1.2,1.15 -2.85,1.15 h -12 q -1.65,0 -2.8,-1.15 -1.2,-1.2 -1.2,-2.85 V 48 q 0,-1.65 1.2,-2.8 1.15,-1.2 2.8,-1.2 h 12.05 q 1.65,0 2.85,1.2 m -2.85,6.85 V 48 H 343 v 50.6 h 12 v -4 h 85.5 v 4 h 12 L 452.55,48 H 440.5 v 4.05 h -85.45"
       id="path84"
       style="stroke-width:0.918358" />
  </g>
  <g
     id="g165"
     transform="matrix(1.1433438,0,0,1.1433429,-159.66136,-49.041067)"
     style="stroke-width:0.874627">
    <path
       stroke="none"
       fill="#1ea7e1"
       d="m 376.8,448.025 v -26.55 h 85.45 v 26.55 H 376.8 m 40.15,-20.3 q -1.15,0 -1.95,0.8 -0.8,0.8 -0.8,1.95 0,1.15 0.8,1.95 0.8,0.8 1.95,0.8 1.15,0 1.95,-0.8 0.8,-0.8 0.8,-1.95 0,-1.15 -0.8,-1.95 -0.8,-0.8 -1.95,-0.8 m -18.25,2.85 v 0.15 q 0.05,2.15 1.55,3.65 1.6,1.6 3.85,1.6 1.75,0 3.1,-0.95 l 0.7,-0.65 q 1.55,-1.5 1.6,-3.65 v -0.15 q 0,-2.25 -1.6,-3.85 l -0.7,-0.6 q -1.35,-0.95 -3.1,-0.95 -2.25,0 -3.85,1.55 -1.55,1.6 -1.55,3.85 m 47.25,6.7 q -0.8,0.8 -0.8,1.95 0,1.15 0.8,1.95 0.8,0.8 1.95,0.8 1.15,0 1.95,-0.8 0.8,-0.8 0.8,-1.95 0,-1.15 -0.8,-1.95 -0.8,-0.8 -1.95,-0.8 -1.15,0 -1.95,0.8"
       id="path88"
       style="fill:#cccccc;fill-opacity:1;stroke-width:0.874627" />
    <path
       stroke="none"
       fill="#2cb8f3"
       d="m 445.95,437.275 q 0.8,-0.8 1.95,-0.8 1.15,0 1.95,0.8 0.8,0.8 0.8,1.95 0,1.15 -0.8,1.95 -0.8,0.8 -1.95,0.8 -1.15,0 -1.95,-0.8 -0.8,-0.8 -0.8,-1.95 0,-1.15 0.8,-1.95 m -47.25,-6.7 q 0,-2.25 1.55,-3.85 1.6,-1.55 3.85,-1.55 1.75,0 3.1,0.95 l 0.7,0.6 q 1.6,1.6 1.6,3.85 v 0.15 q -0.05,2.15 -1.6,3.65 l -0.7,0.65 q -1.35,0.95 -3.1,0.95 -2.25,0 -3.85,-1.6 -1.5,-1.5 -1.55,-3.65 v -0.15 m 18.25,-2.85 q 1.15,0 1.95,0.8 0.8,0.8 0.8,1.95 0,1.15 -0.8,1.95 -0.8,0.8 -1.95,0.8 -1.15,0 -1.95,-0.8 -0.8,-0.8 -0.8,-1.95 0,-1.15 0.8,-1.95 0.8,-0.8 1.95,-0.8"
       id="path89"
       style="fill:#e5e5e5;fill-opacity:1;stroke-width:0.874627" />
  </g>
  <g
     id="g168"
     transform="matrix(1.0888989,0,0,1.088898,7.1593154,-47.911509)"
     style="stroke-width:0.918358">
    <path
       style="fill:#a1e03d;fill-opacity:1;stroke-width:0.918358"
       d="m 309.63956,147.99927 h -9.03957 V 57.600732 h 9.03957 v 90.398538"
       id="path122" />
    <path
       style="fill:#a1e03d;fill-opacity:1;stroke-width:0.918358"
       d="M 264.52647,57.915811 H 274.05 v 89.718379 h -9.52353 V 57.915811"
       id="path174" />
    <path
       style="fill:#80be1f;fill-opacity:1;stroke-width:0.918358"
       d="m 310.16215,145.55367 h 4.29336 v 12.88008 H 260.14449 V 145.5 h 4.34703 8.58672 l 14.27543,0.0537 h 14.22176 8.58672"
       id="path173" />
    <path
       style="fill:#80be1f;fill-opacity:1;stroke-width:0.918358"
       d="m 310.25227,60.05 h -8.62057 -28.60952 -8.62057 -4.36416 V 47.065266 l 54.5251,0.05388 V 60.05 h -4.31028"
       id="path121" />
    <path
       stroke="none"
       fill="#527914"
       d="M 259.2,45.2 Q 260.35,44 262,44 l 50.6,0.05 q 1.65,0 2.85,1.2 1.15,1.15 1.15,2.8 v 12 q 0,1.65 -1.15,2.85 -1.2,1.15 -2.85,1.15 v 77.5 q 1.65,0 2.85,1.2 1.15,1.15 1.15,2.8 v 12 q 0,1.65 -1.15,2.85 -1.2,1.15 -2.85,1.15 H 262 q -1.65,0 -2.8,-1.15 -1.2,-1.2 -1.2,-2.85 V 145.5 q 0,-1.65 1.2,-2.8 1.15,-1.2 2.8,-1.2 h 0.05 V 64.05 H 262 q -1.65,0 -2.8,-1.15 Q 258,61.7 258,60.05 V 48 q 0,-1.65 1.2,-2.8 m 49.4,14.85 h 4 v -12 L 262,48 v 12.05 h 4.05 V 145.5 H 262 v 12.05 h 50.6 v -12 h -4 v -85.5"
       id="path120"
       style="stroke-width:0.918358" />
  </g>
  <g
     id="g164"
     transform="matrix(1.1433438,0,0,1.1433429,-33.351806,-210.74105)"
     style="stroke-width:0.874627">
    <path
       stroke="none"
       fill="#1ea7e1"
       d="m 295.8,421.475 h 26.55 v 85.5 H 309.1 l -13.3,-0.05 v -85.45 m 9.95,49.2 q 1.6,1.6 3.85,1.6 2.25,0 3.8,-1.6 1.55,-1.5 1.6,-3.65 v -0.15 q 0,-2.25 -1.6,-3.85 -1.55,-1.55 -3.8,-1.55 -2.25,0 -3.85,1.55 -1.55,1.6 -1.55,3.85 v 0.15 q 0.05,2.15 1.55,3.65 m -1.35,-15.35 q -0.8,-0.8 -1.95,-0.8 -1.15,0 -1.95,0.8 -0.8,0.8 -0.8,1.95 0,1.15 0.8,1.95 0.8,0.8 1.95,0.8 1.15,0 1.95,-0.8 0.8,-0.8 0.8,-1.95 0,-1.15 -0.8,-1.95 m -0.05,-12.3 q 0.35,1.45 1.5,2.6 1.65,1.65 4,1.65 2.35,0 4,-1.65 1.15,-1.15 1.5,-2.6 l 0.15,-1.4 q 0,-2.35 -1.65,-4 -1.65,-1.65 -4,-1.65 -2.35,0 -4,1.65 -1.65,1.65 -1.65,4 l 0.15,1.4"
       id="path123"
       style="fill:#cccccc;fill-opacity:1;stroke-width:0.874627" />
    <path
       stroke="none"
       fill="#2cb8f3"
       d="m 304.35,443.025 -0.15,-1.4 q 0,-2.35 1.65,-4 1.65,-1.65 4,-1.65 2.35,0 4,1.65 1.65,1.65 1.65,4 l -0.15,1.4 q -0.35,1.45 -1.5,2.6 -1.65,1.65 -4,1.65 -2.35,0 -4,-1.65 -1.15,-1.15 -1.5,-2.6 m 0.05,12.3 q 0.8,0.8 0.8,1.95 0,1.15 -0.8,1.95 -0.8,0.8 -1.95,0.8 -1.15,0 -1.95,-0.8 -0.8,-0.8 -0.8,-1.95 0,-1.15 0.8,-1.95 0.8,-0.8 1.95,-0.8 1.15,0 1.95,0.8 m 1.35,15.35 q -1.5,-1.5 -1.55,-3.65 v -0.15 q 0,-2.25 1.55,-3.85 1.6,-1.55 3.85,-1.55 2.25,0 3.8,1.55 1.6,1.6 1.6,3.85 v 0.15 q -0.05,2.15 -1.6,3.65 -1.55,1.6 -3.8,1.6 -2.25,0 -3.85,-1.6"
       id="path124"
       style="fill:#e5e5e5;fill-opacity:1;stroke-width:0.874627" />
    <rect
       style="fill:#c17ce0;stroke:none;stroke-width:0.764973;stroke-linejoin:round;stroke-miterlimit:16;fill-opacity:1"
       id="rect1"
       width="111.95232"
       height="111.95242"
       x="365.0274"
       y="184.32007" />
    <rect
       style="fill:#e2b065;fill-opacity:1;stroke:none;stroke-width:0.764973;stroke-linejoin:round;stroke-miterlimit:16"
       id="rect2"
       width="111.95232"
       height="111.95242"
       x="365.0274"
       y="296.27249" />
    <path
       sodipodi:type="star"
       style="fill:#5e91d2;fill-opacity:1;stroke:#395b85;stroke-width:8.11582;stroke-linecap:round;stroke-linejoin:round;stroke-miterlimit:16;stroke-dasharray:none;stroke-opacity:1"
       id="path3"
       inkscape:flatsided="false"
       sodipodi:sides="5"
       sodipodi:cx="448"
       sodipodi:cy="320"
       sodipodi:r1="64"
       sodipodi:r2="33.94112"
       sodipodi:arg1="1.5707963"
       sodipodi:arg2="2.1991148"
       inkscape:rounded="0"
       inkscape:randomized="0"
       d="m 448,384 -19.95009,-36.54106 -40.91753,-7.68185 28.5877,-30.26547 -5.33834,-41.28871 37.61826,17.83597 37.61825,-17.83597 -5.33833,41.28871 28.5877,30.26547 -40.91753,7.68185 z"
       transform="matrix(0.86216613,0,0,-0.86212727,34.75313,745.35063)" />
  </g>
  <g
     id="g160"
     transform="matrix(1.1448047,0,0,1.1448038,-50.248947,-178.47612)"
     style="stroke-width:0.873512">
    <path
       stroke="none"
       fill="#1ea7e1"
       d="m 117.2,441.875 v 0.15 q 0.05,2.15 1.55,3.65 1.6,1.6 3.85,1.6 2.25,0 3.8,-1.6 1.55,-1.5 1.6,-3.65 v -0.15 q 0,-2.25 -1.6,-3.85 -1.55,-1.55 -3.8,-1.55 -2.25,0 -3.85,1.55 -1.55,1.6 -1.55,3.85 m -12.85,-4.25 q -1.65,1.65 -1.65,4 0,0.75 0.15,1.4 0.35,1.45 1.5,2.6 1.65,1.65 4,1.65 2.35,0 4,-1.65 1.15,-1.15 1.5,-2.6 l 0.15,-1.4 q 0,-2.35 -1.65,-4 -1.65,-1.65 -4,-1.65 -2.35,0 -4,1.65 m 37.4,-16.2 v 26.7 h -3.85 l -0.45,0.05 q -17.75,1 -22.85,15.4 l 0.05,-0.1 q -2.35,5.5 -2.3,13.4 v 0.55 H 87.45 87 85.75 v -0.05 -9.1 q 2.05,-45.75 50.25,-46.85 h 1.6 4.15 m -38.05,35.85 q 0,-1.15 -0.8,-1.95 -0.8,-0.8 -1.95,-0.8 -1.15,0 -1.95,0.8 -0.8,0.8 -0.8,1.95 0,1.15 0.8,1.95 0.8,0.8 1.95,0.8 1.15,0 1.95,-0.8 0.8,-0.8 0.8,-1.95"
       id="path125"
       style="fill:#cccccc;fill-opacity:1;stroke-width:0.873512" />
    <path
       stroke="none"
       fill="#2cb8f3"
       d="m 103.7,457.275 q 0,1.15 -0.8,1.95 -0.8,0.8 -1.95,0.8 -1.15,0 -1.95,-0.8 -0.8,-0.8 -0.8,-1.95 0,-1.15 0.8,-1.95 0.8,-0.8 1.95,-0.8 1.15,0 1.95,0.8 0.8,0.8 0.8,1.95 m 0.65,-19.65 q 1.65,-1.65 4,-1.65 2.35,0 4,1.65 1.65,1.65 1.65,4 l -0.15,1.4 q -0.35,1.45 -1.5,2.6 -1.65,1.65 -4,1.65 -2.35,0 -4,-1.65 -1.15,-1.15 -1.5,-2.6 -0.15,-0.65 -0.15,-1.4 0,-2.35 1.65,-4 m 12.85,4.25 q 0,-2.25 1.55,-3.85 1.6,-1.55 3.85,-1.55 2.25,0 3.8,1.55 1.6,1.6 1.6,3.85 v 0.15 q -0.05,2.15 -1.6,3.65 -1.55,1.6 -3.8,1.6 -2.25,0 -3.85,-1.6 -1.5,-1.5 -1.55,-3.65 v -0.15"
       id="path126"
       style="fill:#e5e5e5;fill-opacity:1;stroke-width:0.873512" />
  </g>
  <g
     id="g166"
     transform="matrix(1.0902902,0,0,1.0902893,-44.047921,-409.97603)"
     style="stroke-width:0.917188">
    <path
       stroke="none"
       fill="#a1e03d"
       d="M 142.21265,417.34801 141.75,421.425 H 137.6 136 c -32.13333,0.73333 -48.883333,16.35 -50.25,46.85 v 9.1 h -1.1 -0.4 -0.5 -7.834374 l 0.591943,-5.32802 c 1.466667,-35.53333 21.822914,-55.08003 59.189581,-55.88003 h 1.6 4.6063 m 1.68092,31.95805 v 9.83438 l -6.04955,-0.13813 c -8.1,0.46667 -11.81535,2.85329 -14.28202,9.25329 -1.2,3 -1.1351,6.01713 -1.06843,10.35046 H 112.35 v -0.55 c -0.0333,-5.26667 0.73333,-9.73333 2.3,-13.4 l -0.05,0.1 c 3.4,-9.6 11.01667,-14.73333 22.85,-15.4 l 0.45,-0.05 h 5.68437"
       id="path128"
       style="stroke-width:0.917188"
       sodipodi:nodetypes="cccccccccccccccccccccccccc" />
    <path
       stroke="none"
       fill="#b2f04f"
       d="m 142.50129,413.425 -0.75129,4 H 137.6 136 c -37.366667,0.8 -56.783333,18.96667 -58.25,54.5 l -1.512413,-3.88166 C 75.637958,438.28285 98.633333,412.39062 136,411.59062 h 1.6 l 4.90129,1.83438"
       id="path130"
       style="stroke-width:0.917188"
       sodipodi:nodetypes="ccccccccc" />
    <path
       style="fill:#80be1f;fill-opacity:1;stroke-width:0.917188"
       d="m 141.75,448.99439 v -28.4453 -4.26147 -4.26147 -4.15493 h 12.83767 v 4.26147 l -0.0533,41.12316 v 8.52294 H 141.75 v -4.26147 -8.52293"
       id="path129" />
    <path
       style="fill:#80be1f;fill-opacity:1;stroke-width:0.917188"
       d="m 113.52232,477.42942 h 8.70515 4.35258 v 13.05773 H 71.519957 v -13.11214 h 4.352577 6.528864 0.544072 0.435258 1.196958 v 0.0544 h 1.36018 0.489665 27.094789"
       id="path175" />
    <path
       stroke="none"
       fill="#527914"
       d="m 157.8,409.525 v 4 l 1.2e-4,38.6 v 8 c 0,1.1 -0.43345,2.05 -1.20012,2.85 -0.8,0.76667 -1.75,1.15 -2.85,1.15 h -12 c -1.1,0 -2.03333,-0.38333 -2.8,-1.15 -0.8,-0.8 -1.2,-1.73333 -1.2,-2.8 -6.03333,0.43333 -10.01667,3 -11.95,7.7 v 0.05 c -0.63333,1.6 -1.06667,3.43333 -1.3,5.5 1.03333,0.0333 1.93333,0.43333 2.7,1.2 0.76667,0.76667 1.15,1.7 1.15,2.8 v 12 c 0,1.1 -0.38333,2.05 -1.15,2.85 -0.8,0.76667 -1.75,1.15 -2.85,1.15 h -50.6 c -1.1,0 -2.033333,-0.38333 -2.8,-1.15 -0.8,-0.8 -1.2,-1.75 -1.2,-2.85 v -12.05 c 0,-1.1 0.4,-2.03333 1.2,-2.8 0.766667,-0.8 1.7,-1.2 2.8,-1.2 v -5.45 -0.15 c 1.5,-38.03333 22.233333,-57.48333 62.2,-58.35 h 0.05 1.6 0.15 c 0.0333,-1.06667 0.43333,-1.96667 1.2,-2.7 0.76667,-0.8 1.7,-1.2 2.8,-1.2 h 12.05 c 1.1,0 2.05,0.4 2.85,1.2 0.76667,0.76667 1.15,1.7 1.15,2.8 m -16.05,46.6 v 4 h 12 v -8 l 0.05,-38.6 v -4 h -12.05 v 3.9 H 137.6 136 c -37.366667,0.8 -56.783333,18.96667 -58.25,54.5 v 4 5.45 h -4 v 12.05 h 50.6 v -12 h -4 c -0.0667,-4.33333 0.5,-8 1.7,-11 2.46667,-6.4 7.75,-9.83333 15.85,-10.3 h 3.85"
       id="path127"
       style="stroke-width:0.917188"
       sodipodi:nodetypes="cccscsssccccssscssssscccccccccssscccccccccccccccccccccc" />
  </g>
  <g
     id="g167"
     transform="matrix(1.0921507,0,0,1.0921498,-33.693039,-16.175819)"
     style="stroke-width:0.915624">
    <path
       stroke="none"
       fill="#b2f04f"
       d="m 162.26875,56.05 v -4 L 173.55,50.218749 c 35.53333,1.466667 55.06059,22.463804 55.86059,59.830471 L 228.05,111.9 v 2.4 C 227.25,76.933333 208.61666,59.16821 173.08332,57.701543 L 162.26875,56.05"
       id="path133"
       style="stroke-width:0.915624"
       sodipodi:nodetypes="cccccccc" />
    <path
       stroke="none"
       fill="#a1e03d"
       d="M 162.26875,56.05 H 173.55 c 35.53333,1.466667 53.7,20.883333 54.5,58.25 v 3.43125 0.15 h -8 v -0.15 -3.43125 -2.4 -1.6 C 219.31667,78.166667 203.71667,61.416667 173.25,60.05 h -10.98125 v -4 m -0.05,40.431251 0.05,-9.831251 H 165.25 c 5,0.03333 9.26667,0.8 12.8,2.3 l -0.1,-0.05 c 9.56667,3.4 14.7,11.016667 15.4,22.85 v 0.45 5.68125 h -9.83125 V 112.2 C 183.05208,104.1 181.45,100.64792 175.05,98.181251 c -3,-1.2 -8.49792,-1.766667 -12.83125,-1.7"
       id="path134"
       style="stroke-width:0.915624"
       sodipodi:nodetypes="ccccccccccccccccccccccccc" />
    <path
       style="fill:#80be1f;fill-opacity:1;stroke-width:0.915624"
       d="m 164.1,50.07071 v 4.371697 4.371698 29.071789 l -0.0546,8.743395 v 4.371701 H 150.93026 V 45.699012 H 164.1 v 4.371698"
       id="path132" />
    <path
       style="fill:#80be1f;fill-opacity:1;stroke-width:0.915624"
       d="m 221.22399,116.05 h 8.7009 4.24168 v 13.10572 h -4.35044 l -41.98182,-0.0544 h -8.70089 V 116.05 h 4.35044 8.7009 29.03923"
       id="path176" />
    <path
       stroke="none"
       fill="#527914"
       d="m 173.55,48.05 h 0.2 q 57,2.25 58.3,62.2 v 0.05 1.6 0.15 q 1.6,0.05 2.75,1.2 1.15,1.15 1.15,2.8 v 12.05 q 0,1.65 -1.15,2.85 -1.2,1.15 -2.85,1.15 h -4 l -38.6,-0.05 h -8 q -1.65,0 -2.8,-1.15 -1.2,-1.2 -1.2,-2.85 v -12 q 0,-1.65 1.2,-2.8 1.15,-1.2 2.8,-1.2 -0.7,-9.05 -7.75,-11.95 -2.45,-0.95 -5.55,-1.3 -0.05,1.55 -1.15,2.7 -1.2,1.15 -2.85,1.15 h -12 q -1.65,0 -2.8,-1.15 -1.2,-1.2 -1.2,-2.85 v -50.6 q 0,-1.65 1.2,-2.8 1.15,-1.2 2.8,-1.2 h 12.05 q 1.65,0 2.85,1.2 1.15,1.15 1.15,2.8 h 5.45 m -9.45,4 v -4 h -12.05 v 50.6 h 12 v -4 q 6.5,-0.1 11,1.7 9.6,3.7 10.3,15.85 v 3.85 h -4 v 12 h 8 l 38.6,0.05 h 4 v -12.05 h -3.9 v -0.15 -1.6 -2.4 -1.6 q -1.2,-56.05 -54.5,-58.25 h -9.45"
       id="path131"
       style="stroke-width:0.915624" />
  </g>
  <g
     id="g161"
     transform="matrix(1.1467582,0,0,1.1467573,-69.123771,-179.45068)"
     style="stroke-width:0.872023">
    <path
       stroke="none"
       fill="#1ea7e1"
       d="m 185.85,448.075 v -26.6 H 195 q 45.7,2.05 46.8,50.25 v 1.6 2.4 1.6 0.15 h -26.7 v -3.85 -0.45 q -1.05,-17.75 -15.4,-22.85 l 0.1,0.05 q -5.3,-2.25 -12.8,-2.3 h -1.15 m 33.35,-6.3 q 0,1.15 0.8,1.95 0.8,0.8 1.95,0.8 1.15,0 1.95,-0.8 0.8,-0.8 0.8,-1.95 0,-1.15 -0.8,-1.95 -0.8,-0.8 -1.95,-0.8 -1.15,0 -1.95,0.8 -0.8,0.8 -0.8,1.95 m -13.95,-3.75 q -1.55,1.6 -1.55,3.85 v 0.15 q 0.05,2.15 1.55,3.65 1.6,1.6 3.85,1.6 1.75,0 3.1,-0.95 l 0.7,-0.65 q 1.55,-1.5 1.6,-3.65 v -0.15 q 0,-2.25 -1.6,-3.85 l -0.7,-0.6 q -1.35,-0.95 -3.1,-0.95 -2.25,0 -3.85,1.55"
       id="path135"
       style="fill:#cccccc;fill-opacity:1;stroke-width:0.872023" />
    <path
       stroke="none"
       fill="#2cb8f3"
       d="m 205.25,438.025 q 1.6,-1.55 3.85,-1.55 1.75,0 3.1,0.95 l 0.7,0.6 q 1.6,1.6 1.6,3.85 v 0.15 q -0.05,2.15 -1.6,3.65 l -0.7,0.65 q -1.35,0.95 -3.1,0.95 -2.25,0 -3.85,-1.6 -1.5,-1.5 -1.55,-3.65 v -0.15 q 0,-2.25 1.55,-3.85 m 13.95,3.75 q 0,-1.15 0.8,-1.95 0.8,-0.8 1.95,-0.8 1.15,0 1.95,0.8 0.8,0.8 0.8,1.95 0,1.15 -0.8,1.95 -0.8,0.8 -1.95,0.8 -1.15,0 -1.95,-0.8 -0.8,-0.8 -0.8,-1.95"
       id="path136"
       style="fill:#e5e5e5;fill-opacity:1;stroke-width:0.872023" />
  </g>
  <g
     id="g171"
     transform="matrix(1.0921507,0,0,1.0921498,-33.69304,-29.269603)"
     style="stroke-width:0.915626">
    <path
       stroke="none"
       fill="#a1e03d"
       d="m 162.21875,185.45 c 4.33333,0.0667 8.63953,-1.85105 11.63953,-3.05105 6.4,-2.46667 10.44555,-4.4379 10.91221,-12.5379 l -1.53804,-6.08313 2.11755,-5.55917 h 8 v 5.68125 0.45 c -0.7,11.83333 -5.83333,19.46667 -15.4,22.9 l 0.1,-0.05 c -3.73333,1.53333 -8.26667,2.28333 -13.6,2.25 h -2.23125 v -4 M 220.05,158.21875 h 9.83125 v 5.98125 1.6 c -0.8,37.36667 -20.79792,58.61458 -56.33125,60.08125 H 162.26875 V 216.05 h 2.98125 1.15 2.25 4.6 c 30.5,-1.36667 46.1,-18.16667 46.8,-50.4 v -1.45 -5.98125"
       id="path139"
       style="stroke-width:0.915626"
       sodipodi:nodetypes="ccccccccccccccccccccccccccc" />
    <path
       style="fill:#80be1f;fill-opacity:1;stroke-width:0.915625"
       d="m 230.53851,160.05 h -8.93029 -29.80482 -8.93029 -4.46514 v -13.39543 h 8.93029 l 43.08862,-0.0558 h 4.46514 V 160.05 h -4.35351"
       id="path138" />
    <path
       style="fill:#80be1f;fill-opacity:1;stroke-width:0.915626"
       d="m 164.04486,183.66867 v 4.41187 l 0.0551,29.33893 v 8.82374 4.41187 H 150.8092 v -55.81014 h 13.23561 v 4.41186 4.41187"
       id="path177" />
    <path
       stroke="none"
       fill="#b2f04f"
       d="m 185.35,163.9 v 4 c -0.46667,8.1 -3.9,13.38333 -10.3,15.85 -3,1.2 -6.66667,1.76667 -11,1.7 v -5.83125 c 4.33333,0.0667 8,-0.5 11,-1.7 4.27277,-1.6468 6.12944,-6.83043 7.75763,-10.4455 0.8106,-1.7998 2.38726,-0.88097 2.54237,-3.57325"
       id="path140"
       style="stroke-width:0.915626"
       sodipodi:nodetypes="ccccccsc" />
    <path
       stroke="none"
       fill="#527914"
       d="m 178.55,145.25 q 1.15,-1.2 2.8,-1.2 h 8 l 38.6,-0.05 h 4 q 1.65,0 2.85,1.2 1.15,1.15 1.15,2.8 v 12.05 q 0,1.65 -1.15,2.85 -1.15,1.1 -2.75,1.15 v 0.15 1.6 0.1 q -1.3,59.9 -58.3,62.15 h -0.2 -5.45 q 0,1.65 -1.15,2.85 -1.2,1.15 -2.85,1.15 h -12.05 q -1.65,0 -2.8,-1.15 -1.2,-1.2 -1.2,-2.85 v -50.6 q 0,-1.65 1.2,-2.8 1.15,-1.2 2.8,-1.2 h 12 q 1.65,0 2.85,1.2 1.1,1.1 1.15,2.65 3.1,-0.35 5.55,-1.25 7.05,-2.95 7.75,-12 -1.65,0 -2.8,-1.15 -1.2,-1.2 -1.2,-2.85 v -12 q 0,-1.65 1.2,-2.8 m 49.5,14.8 h 3.9 V 148 h -4 l -38.6,0.05 h -8 v 12 h 4 v 3.85 q -0.7,12.15 -10.3,15.85 -4.5,1.8 -11,1.7 v -4 h -12 v 50.6 h 12.05 v -4 h 9.45 q 53.3,-2.2 54.5,-58.25 v -1.6 -4.15"
       id="path137"
       style="stroke-width:0.915626" />
  </g>
  <g
     id="g162"
     transform="matrix(1.1467582,0,0,1.1467573,-69.122406,-198.00514)"
     style="stroke-width:0.872025">
    <path
       stroke="none"
       fill="#1ea7e1"
       d="m 215.1,521.475 h 26.7 v 4.15 1.45 q -1.05,48.35 -46.8,50.4 h -4.6 -2.25 -1.15 -1.15 l -0.05,-26.6 h 0.4 q 8,0.05 13.6,-2.25 l -0.1,0.05 q 14.35,-5.15 15.4,-22.9 v -0.45 -3.85 m 7.65,18.1 q -1.55,1.6 -1.55,3.85 v 0.15 q 0.05,2.15 1.55,3.65 1.6,1.6 3.85,1.6 2.25,0 3.8,-1.6 1.55,-1.5 1.6,-3.65 v -0.15 q 0,-2.25 -1.6,-3.85 -1.55,-1.55 -3.8,-1.55 -2.25,0 -3.85,1.55 m -27.55,21 q 0.05,2.15 1.55,3.65 1.6,1.6 3.85,1.6 2.25,0 3.8,-1.6 1.55,-1.5 1.6,-3.65 v -0.15 q 0,-2.25 -1.6,-3.85 -1.55,-1.55 -3.8,-1.55 -2.25,0 -3.85,1.55 -1.55,1.6 -1.55,3.85 v 0.15 m 15.3,0.75 q -0.8,0.8 -0.8,1.95 0,1.15 0.8,1.95 0.8,0.8 1.95,0.8 1.15,0 1.95,-0.8 0.8,-0.8 0.8,-1.95 0,-1.15 -0.8,-1.95 -0.8,-0.8 -1.95,-0.8 -1.15,0 -1.95,0.8"
       id="path141"
       style="fill:#cccccc;fill-opacity:1;stroke-width:0.872025" />
    <path
       stroke="none"
       fill="#2cb8f3"
       d="m 210.5,561.325 q 0.8,-0.8 1.95,-0.8 1.15,0 1.95,0.8 0.8,0.8 0.8,1.95 0,1.15 -0.8,1.95 -0.8,0.8 -1.95,0.8 -1.15,0 -1.95,-0.8 -0.8,-0.8 -0.8,-1.95 0,-1.15 0.8,-1.95 m 12.25,-21.75 q 1.6,-1.55 3.85,-1.55 2.25,0 3.8,1.55 1.6,1.6 1.6,3.85 v 0.15 q -0.05,2.15 -1.6,3.65 -1.55,1.6 -3.8,1.6 -2.25,0 -3.85,-1.6 -1.5,-1.5 -1.55,-3.65 v -0.15 q 0,-2.25 1.55,-3.85 m -27.55,21 v -0.15 q 0,-2.25 1.55,-3.85 1.6,-1.55 3.85,-1.55 2.25,0 3.8,1.55 1.6,1.6 1.6,3.85 v 0.15 q -0.05,2.15 -1.6,3.65 -1.55,1.6 -3.8,1.6 -2.25,0 -3.85,-1.6 -1.5,-1.5 -1.55,-3.65"
       id="path142"
       style="fill:#e5e5e5;fill-opacity:1;stroke-width:0.872025" />
  </g>
  <g
     id="g170"
     transform="matrix(1.0921507,0,0,1.0921498,-20.587234,-29.378822)"
     style="stroke-width:0.915624">
    <path
       stroke="none"
       fill="#a1e03d"
       d="m 98.6,158.26875 v 3.18125 0.35 2.3 c -0.06667,4.33333 1.45084,8 2.65084,11 2.46667,6.4 6.19888,8.16252 14.29888,8.62919 l 6.28153,1.67081 v 4 h -0.1 H 116.15 115.7 C 103.86667,188.7 96.25,183.56667 92.85,174 l 0.05,0.05 c -1.133333,-2.7 -1.85,-5.81667 -2.15,-9.35 l -0.15,-2.65 v -0.25 -0.35 -3.18125 h 8 m 23.23125,67.6625 H 115.85 114.25 C 76.883333,225.13125 55.635418,205.13333 54.168751,169.6 V 158.31875 H 62 62.5 62.9 64 V 169.3 c 1.366667,30.5 18.183333,46.1 50.45,46.8 h 1.4 5.98125 v 9.83125"
       id="path144"
       style="stroke-width:0.915624"
       sodipodi:nodetypes="ccccccccccccccccccccccccccccccccc" />
    <path
       stroke="none"
       fill="#b2f04f"
       d="m 98.6,161.8 c 0.05103,1.83707 1.073387,1.44766 1.8345,3.02432 0.7304,1.51304 1.19072,5.00245 1.69675,6.27568 2.46667,6.4 5.91875,8.00208 14.01875,8.46875 h 5.68125 V 185.4 H 116.15 c -8.1,-0.46667 -13.38333,-3.9 -15.85,-10.3 -1.2,-3 -1.766667,-6.66667 -1.7,-11 v -2.3"
       id="path146"
       style="stroke-width:0.915624"
       sodipodi:nodetypes="cscccccccc" />
    <path
       style="fill:#80be1f;fill-opacity:1;stroke-width:0.915624"
       d="m 120,225.90812 v -8.67593 -28.95592 -4.33797 -4.33796 -4.33797 h 13.0139 v 8.67593 l 0.0542,41.86137 v 4.33796 H 120 v -4.22951"
       id="path145" />
    <path
       style="fill:#80be1f;fill-opacity:1;stroke-width:0.915623"
       d="m 53.688457,160.15 h -4.434093 v -13.35771 h 56.091266 v 13.30228 h -4.43409 -8.868184 L 64.441131,160.15 h -1.88449 -1.219375 -0.443409 -0.554262 -6.651138"
       id="path178" />
    <path
       stroke="none"
       fill="#527914"
       d="m 98.6,161.8 v -0.35 -1.35 h 4 v -12 H 52 v 12.05 h 4 v 9.45 q 2.2,53.3 58.25,54.5 h 1.6 4.15 v 3.9 h 12.05 v -4 L 132,185.4 v -8 h -12 v 4 h -3.85 Q 104,180.7 100.3,171.1 q -1.55,-3.9 -1.7,-9.3 m 6.85,-16.5 q 1.15,1.15 1.15,2.8 v 12 q 0,1.65 -1.15,2.85 -1.15,1.1 -2.7,1.15 0.35,3.1 1.3,5.55 2.9,7.05 11.95,7.75 0,-1.65 1.2,-2.8 1.15,-1.2 2.8,-1.2 h 12 q 1.65,0 2.85,1.2 1.15,1.15 1.15,2.8 v 8 l 0.05,38.6 v 4 q 0,1.65 -1.15,2.85 -1.2,1.15 -2.85,1.15 H 120 q -1.65,0 -2.8,-1.15 -1.15,-1.15 -1.2,-2.75 h -0.15 -1.6 -0.05 Q 54.25,226.8 52,169.8 v -0.2 -5.45 q -1.65,0 -2.8,-1.15 Q 48,161.8 48,160.15 V 148.1 q 0,-1.65 1.2,-2.8 1.15,-1.2 2.8,-1.2 h 50.6 q 1.65,0 2.85,1.2"
       id="path143"
       style="stroke-width:0.915624" />
  </g>
  <g
     id="g163"
     transform="matrix(1.1467582,0,0,1.1467573,-50.553116,-198.11713)"
     style="stroke-width:0.872023">
    <path
       stroke="none"
       fill="#1ea7e1"
       d="m 112.35,521.525 v 1.35 0.35 0.25 l 0.15,2.65 q 0.45,5.3 2.15,9.35 l -0.05,-0.05 q 5.1,14.35 22.85,15.4 h 0.45 3.75 0.1 v 26.7 h -4.15 -1.4 q -48.4,-1.05 -50.45,-46.8 v -9.15 h 1.7 l 24.9,-0.05 m 9.55,35.05 q -1.55,-1.55 -3.8,-1.55 -2.25,0 -3.85,1.55 -1.55,1.6 -1.55,3.85 v 0.15 q 0.05,2.15 1.55,3.65 1.6,1.6 3.85,1.6 2.25,0 3.8,-1.6 1.55,-1.5 1.6,-3.65 v -0.15 q 0,-2.25 -1.6,-3.85 m -12.7,0.7 q 0,-1.15 -0.8,-1.95 -0.8,-0.8 -1.95,-0.8 -1.15,0 -1.95,0.8 -0.8,0.8 -0.8,1.95 0,1.15 0.8,1.95 0.8,0.8 1.95,0.8 1.15,0 1.95,-0.8 0.8,-0.8 0.8,-1.95 m -16.15,-12.5 q 0.35,1.45 1.5,2.6 1.65,1.65 4,1.65 2.35,0 4,-1.65 1.15,-1.15 1.5,-2.6 l 0.15,-1.4 q 0,-2.35 -1.65,-4 -1.65,-1.65 -4,-1.65 -2.35,0 -4,1.65 -1.65,1.65 -1.65,4 l 0.15,1.4"
       id="path147"
       style="fill:#cccccc;fill-opacity:1;stroke-width:0.872023" />
    <path
       stroke="none"
       fill="#2cb8f3"
       d="m 93.05,544.775 -0.15,-1.4 q 0,-2.35 1.65,-4 1.65,-1.65 4,-1.65 2.35,0 4,1.65 1.65,1.65 1.65,4 l -0.15,1.4 q -0.35,1.45 -1.5,2.6 -1.65,1.65 -4,1.65 -2.35,0 -4,-1.65 -1.15,-1.15 -1.5,-2.6 m 28.85,11.8 q 1.6,1.6 1.6,3.85 v 0.15 q -0.05,2.15 -1.6,3.65 -1.55,1.6 -3.8,1.6 -2.25,0 -3.85,-1.6 -1.5,-1.5 -1.55,-3.65 v -0.15 q 0,-2.25 1.55,-3.85 1.6,-1.55 3.85,-1.55 2.25,0 3.8,1.55 m -12.7,0.7 q 0,1.15 -0.8,1.95 -0.8,0.8 -1.95,0.8 -1.15,0 -1.95,-0.8 -0.8,-0.8 -0.8,-1.95 0,-1.15 0.8,-1.95 0.8,-0.8 1.95,-0.8 1.15,0 1.95,0.8 0.8,0.8 0.8,1.95"
       id="path148"
       style="fill:#e5e5e5;fill-opacity:1;stroke-width:0.872023" />
  </g>
</svg>
